Coordinates
version=1
nRows=6
nColumns=63
inDegrees=yes

Units are S.I. units (second, meters, Newtons, ...)
If the header above contains a line with 'inDegrees', this indicates whether rotational values are in degrees (yes) or radians (no).

endheader
time	pelvis_tilt	pelvis_list	pelvis_rotation	pelvis_tx	pelvis_ty	pelvis_tz	hip_flexion_r	hip_adduction_r	hip_rotation_r	knee_angle_r	knee_angle_r_beta	ankle_angle_r	subtalar_angle_r	mtp_angle_r	hip_flexion_l	hip_adduction_l	hip_rotation_l	knee_angle_l	knee_angle_l_beta	ankle_angle_l	subtalar_angle_l	mtp_angle_l	L5_S1_Flex_Ext	L5_S1_Lat_Bending	L5_S1_axial_rotation	L4_L5_Flex_Ext	L4_L5_Lat_Bending	L4_L5_axial_rotation	L3_L4_Flex_Ext	L3_L4_Lat_Bending	L3_L4_axial_rotation	L2_L3_Flex_Ext	L2_L3_Lat_Bending	L2_L3_axial_rotation	L1_L2_Flex_Ext	L1_L2_Lat_Bending	L1_L2_axial_rotation	L1_T12_Flex_Ext	L1_T12_Lat_Bending	L1_T12_axial_rotation	Abs_r3	Abs_r2	Abs_r1	Abs_t1	Abs_t2	neck_flexion	neck_bending	neck_rotation	arm_flex_r	arm_add_r	arm_rot_r	elbow_flex_r	pro_sup_r	wrist_flex_r	wrist_dev_r	arm_flex_l	arm_add_l	arm_rot_l	elbow_flex_l	pro_sup_l	wrist_flex_l	wrist_dev_l
      2.20000000	    -10.83976493	     -2.02072760	     62.83348817	      0.26624285	      0.80687791	      0.63030330	     13.40824981	     -7.90530106	     20.02469756	     26.95838389	      0.47051256	     26.03166189	      5.71734408	      0.00000000	      4.10380172	      4.85965699	    -29.45631498	     17.81867899	      0.31099462	     16.96393117	      0.75514280	      0.00000000	     -0.31841403	      0.10257777	     -3.03725519	     -0.59132670	      0.13642844	     -3.22708364	     -0.52312242	      0.24940760	     -3.22708364	     -0.36391540	      0.24940760	     -2.65759829	     -0.29567927	      0.20917660	     -2.46776984	     -0.18194178	      0.15889297	     -2.27794139	     -2.27439960	      1.16038030	    -16.89230217	      0.00000000	      0.00000000	     -7.62246096	     11.34697584	      6.67138852	     10.44006850	      1.20299641	     64.61801013	    148.94373657	     88.13393652	    -12.88912300	     17.94816016	     24.08130338	      9.77309418	     80.14276924	     65.29643107	     57.32194875	    -19.42534064	      0.64484006
      2.21666667	    -10.36579820	     -0.94232712	     65.52133125	      0.26638001	      0.80856308	      0.62547464	     11.06283615	     -8.39433118	     17.75088072	     26.68797305	      0.46579300	     26.65715744	      4.99411188	      0.00000000	      2.42909088	      5.10503442	    -26.54077750	     17.39673732	      0.30363035	     17.14689488	      0.78932872	      0.00000000	     -0.26090924	      0.02680258	     -2.52035457	     -0.48453456	      0.03564743	     -2.67787674	     -0.42864780	      0.06516779	     -2.67787674	     -0.29819318	      0.06516779	     -2.20531025	     -0.24228032	      0.05465582	     -2.04778809	     -0.14908354	      0.04151719	     -1.89026593	     -1.86364864	      0.30319612	    -14.01745604	      0.00000000	      0.00000000	     -4.18927183	     12.33308423	      4.05334929	      9.87784269	      0.30843621	     61.29714686	    149.47090133	     87.91840355	     -6.13154215	     17.78442846	     21.83131748	      8.79484914	     80.41444896	     63.36429457	     55.73286551	    -18.84189690	      2.37807591
      2.23333333	     -9.98530420	      0.10554661	     68.36017190	      0.26612791	      0.81038511	      0.62023360	      8.61616260	     -8.82345451	     15.33568028	     26.25579672	      0.45825010	     27.11285873	      4.21217718	      0.00000000	      0.76231284	      5.25888307	    -23.71577111	     16.99056493	      0.29654130	     17.35864279	      1.25044417	      0.00000000	     -0.20291037	     -0.04306910	     -2.02198668	     -0.37682485	     -0.05728190	     -2.14836085	     -0.33336145	     -0.10471821	     -2.14836085	     -0.23190626	     -0.10471821	     -1.76923834	     -0.18842257	     -0.08782651	     -1.64286418	     -0.11594299	     -0.06671404	     -1.51649001	     -1.44936849	     -0.48720629	    -11.24568331	      0.00000000	      0.00000000	     -0.55317096	     12.76578180	      2.11606772	      7.64995936	     -1.18886816	     58.54598675	    149.71178153	     86.95881675	     -0.57344427	     15.36697238	     20.82313245	      6.63289198	     80.85790693	     62.73291691	     56.74343595	    -17.15540001	      5.73154580
      2.25000000	     -9.67941478	      1.10296589	     71.03225342	      0.26558509	      0.81243686	      0.61495157	      6.19716619	     -9.17817711	     12.90707075	     25.68813436	      0.44834252	     27.30779852	      3.80959855	      0.00000000	     -0.85026687	      5.35668177	    -20.94689443	     16.58220740	      0.28941412	     17.40633210	      1.58932339	      0.00000000	     -0.15201918	     -0.11098021	     -1.60361865	     -0.28231482	     -0.14760368	     -1.70384482	     -0.24975231	     -0.26983728	     -1.70384482	     -0.17374272	     -0.26983728	     -1.40316632	     -0.14116501	     -0.22631084	     -1.30294016	     -0.08686376	     -0.17190835	     -1.20271399	     -1.08585780	     -1.25543033	     -8.91884586	      0.00000000	      0.00000000	      2.91211366	     12.44645797	      1.15081892	      4.60234441	     -2.06912477	     55.63727620	    149.78820954	     83.15203634	      4.96095651	     13.68954205	     20.90756846	      3.29241800	     80.67289093	     63.22203405	     62.03162966	    -14.31632074	     10.09743291
      2.26666667	     -9.29455615	      2.03700813	     73.50730360	      0.26437235	      0.81455172	      0.60993937	      3.82659709	     -9.31423825	     10.48814084	     25.05491087	      0.43729069	     27.20645990	      3.53363509	      0.00000000	     -2.39011609	      5.23032357	    -18.65632863	     16.28044611	      0.28414739	     17.66051084	      2.17015194	      0.00000000	     -0.10576065	     -0.15623833	     -1.41375163	     -0.19640811	     -0.20779698	     -1.50211111	     -0.17375418	     -0.37987789	     -1.50211111	     -0.12087385	     -0.37987789	     -1.23703268	     -0.09820934	     -0.31860121	     -1.14867320	     -0.06043164	     -0.24201318	     -1.06031372	     -0.75543778	     -1.76739929	     -7.86286245	      0.00000000	      0.00000000	      5.66244030	     11.65400262	      2.08246669	      2.99621117	     -2.31860022	     53.11400659	    149.80073368	     71.85251934	      9.15847282	     15.37178260	     21.63095465	     -1.25674815	     78.91711510	     64.99710997	     70.73551239	    -10.56190615	     14.30779320
      2.28333333	     -8.87842854	      3.07756919	     75.26862837	      0.26304791	      0.81672704	      0.60594713	      1.62702525	     -9.26623530	      9.02664331	     24.55190831	      0.42851164	     26.87013628	      3.15462143	      0.00000000	     -4.00485534	      5.03843870	    -17.32766786	     15.97282390	      0.27877837	     18.08039238	      3.11061501	      0.00000000	     -0.07456880	     -0.18274800	     -1.40771963	     -0.13848172	     -0.24305484	     -1.49570210	     -0.12250908	     -0.44433349	     -1.49570210	     -0.08522468	     -0.44433349	     -1.23175467	     -0.06924459	     -0.37265973	     -1.14377220	     -0.04260861	     -0.28307666	     -1.05578972	     -0.53263748	     -2.06728196	     -7.82931425	      0.00000000	      0.00000000	      7.51035336	     10.59135625	      5.61975457	      4.06060204	     -2.60829992	     50.90184063	    149.79383083	     59.73372725	     10.56076904	     18.45245152	     22.61915245	     -7.04349042	     75.79323473	     68.01225178	     77.70114780	     -6.97601498	     16.46787319
